<svg xmlns="http://www.w3.org/2000/svg" xml:space="preserve" id="Layer_1" x="0" y="0" style="enable-background:new 0 0 72 72" version="1.1" viewBox="0 0 72 72"><style>.st1{fill:#fff}</style><g id="Twitter"><linearGradient id="SVGID_1_" x1="15.781" x2="56.219" y1="365.359" y2="278.641" gradientTransform="translate(0 -286)" gradientUnits="userSpaceOnUse"><stop offset="0" style="stop-color:#3673fc"/><stop offset="1" style="stop-color:#26baff"/></linearGradient><path d="M0 0h72v72H0z" style="fill:url(#SVGID_1_)"/></g><path d="M50.2 49.2H21.9c-1.962 0-3.5-1.493-3.5-3.4V26.2c0-1.843 1.557-3.4 3.4-3.4h28.3c1.93 0 3.5 1.57 3.5 3.5v19.5c0 1.938-1.462 3.4-3.4 3.4zM21.8 25.8c-.172 0-.4.228-.4.4v19.6c0 .316.315.4.5.4h28.3c.273 0 .4-.127.4-.4V26.3c0-.271-.229-.5-.5-.5H21.8z" class="st1"/><path d="M36.003 39.328c-.803 0-1.605-.3-2.29-.9l-14.79-12.69 1.954-2.276 14.8 12.7c.246.213.403.213.635.01L51.02 23.464l1.96 2.27-14.7 12.7c-.68.594-1.478.893-2.277.893z" class="st1"/></svg>