<!-- Generator: Adobe Illustrator 23.0.2, SVG Export Plug-In . SVG Version: 6.00 Build 0)  -->
<svg version="1.1" id="Capa_1" xmlns="http://www.w3.org/2000/svg" xmlns:xlink="http://www.w3.org/1999/xlink" x="0px" y="0px"
     viewBox="0 0 213 213" style="enable-background:new 0 0 213 213;" xml:space="preserve">
<style type="text/css">
	.st0{fill-rule:evenodd;clip-rule:evenodd;fill:#D3D3D3;}
</style>
    <g id="Close">
	<path class="st0" d="M120,106.5L160.6,66c3.7-3.7,3.7-9.8,0-13.5c-3.7-3.7-9.8-3.7-13.5,0L106.5,93L66,52.4
		c-3.7-3.7-9.8-3.7-13.5,0c-3.7,3.7-3.7,9.8,0,13.5L93,106.5l-40.6,40.6c-3.7,3.7-3.7,9.8,0,13.5c3.7,3.7,9.8,3.7,13.5,0l40.6-40.6
		l40.6,40.6c3.7,3.7,9.8,3.7,13.5,0c3.7-3.7,3.7-9.8,0-13.5L120,106.5z"/>
</g>
</svg>
