<svg xmlns="http://www.w3.org/2000/svg" id="Layer_1" data-name="Layer 1" version="1.1" viewBox="0 0 72 72"><defs><style>.cls-1{fill:#fff;stroke-width:0}</style></defs><path d="M0 0h72v72H0z" style="fill:#231f20;stroke-width:0"/><path d="M20.247 34.638h10.504v2.723H20.247zM44.746 37.361H34.639v-6.612h2.723v3.889h7.384v2.723zM37.359 51.746h-2.723V41.639h6.613v2.723h-3.89v7.384zM48.249 34.638h3.504v2.723h-3.504zM44.746 41.639h7.005v2.723h-7.005zM41.252 49.03h10.5v2.723h-10.5zM34.636 20.247h2.723v7.001h-2.723zM49.028 22.97v5.056H43.97V22.97h5.057m2.722-2.723H41.25v10.502H51.75V20.247ZM28.027 22.97v5.056h-5.056V22.97h5.056m2.723-2.723H20.248v10.502H30.75V20.247ZM28.027 43.973v5.056h-5.056v-5.056h5.056m2.723-2.723H20.248v10.502H30.75V41.25Z" class="cls-1"/></svg>