<svg xmlns="http://www.w3.org/2000/svg" viewBox="0 0 72 72" xml:space="preserve"><linearGradient id="a" gradientUnits="userSpaceOnUse" x1="33.188" y1="51.23" x2="33.188" y2="21.395" gradientTransform="matrix(1 0 0 -1 0 74)"><stop offset="0" stop-color="#2aabee"/><stop offset="1" stop-color="#229ed9"/></linearGradient><path d="M17.662 35.614c9.664-4.21 16.108-6.986 19.332-8.327 9.206-3.83 11.119-4.494 12.366-4.517.274-.004.887.064 1.284.386.336.272.428.64.472.898.044.258.1.846.055 1.305-.498 5.241-2.657 17.962-3.755 23.832-.465 2.485-1.38 3.317-2.266 3.399-1.925.177-3.386-1.272-5.25-2.494-2.918-1.913-4.567-3.103-7.399-4.97-3.273-2.156-1.15-3.342.714-5.28.488-.506 8.97-8.22 9.134-8.92.02-.088.04-.415-.154-.587s-.48-.113-.686-.066c-.293.066-4.954 3.147-13.983 9.242-1.323.908-2.521 1.35-3.595 1.327-1.183-.025-3.46-.669-5.153-1.219-2.076-.675-3.725-1.032-3.582-2.178.075-.597.897-1.207 2.466-1.831z" fill="url(#a)"/></svg>