<?xml version="1.0" encoding="utf-8"?><!--Generator: Adobe Illustrator 27.2.0, SVG Export Plug-In . SVG Version: 6.00 Build 0)--><svg xmlns="http://www.w3.org/2000/svg" viewBox="0 0 72 72" style="enable-background:new 0 0 72 72" xml:space="preserve"><path style="fill:#25d366" d="M0 0h72v72H0z"/><path d="M48.692 23.232A17.72 17.72 0 0 0 36.074 18c-9.833 0-17.835 8.002-17.838 17.837a17.8 17.8 0 0 0 2.38 8.918L18.087 54l9.456-2.48a17.815 17.815 0 0 0 8.525 2.17h.007c9.832 0 17.835-8.003 17.838-17.838a17.729 17.729 0 0 0-5.22-12.62zM36.074 50.678h-.006c-2.66-.001-5.27-.716-7.546-2.067l-.542-.321-5.611 1.471 1.497-5.471-.352-.561a14.788 14.788 0 0 1-2.267-7.89c.004-8.175 6.655-14.826 14.833-14.826a14.726 14.726 0 0 1 10.483 4.348 14.735 14.735 0 0 1 4.338 10.49c-.004 8.175-6.655 14.826-14.827 14.826zm8.133-11.104c-.446-.224-2.637-1.301-3.046-1.45-.409-.15-.706-.223-1.002.223-.297.447-1.152 1.45-1.412 1.747-.26.298-.52.335-.965.112-.446-.224-1.882-.694-3.585-2.212-1.325-1.182-2.22-2.641-2.48-3.088-.26-.446-.027-.688.195-.91.2-.2.446-.52.67-.78.223-.26.296-.447.445-.743.149-.298.074-.558-.037-.781-.111-.224-1.002-2.418-1.374-3.31-.362-.869-.73-.75-1.003-.765-.26-.013-.557-.016-.854-.016s-.78.112-1.19.558c-.408.447-1.56 1.525-1.56 3.718s1.598 4.314 1.82 4.611c.224.298 3.144 4.8 7.615 6.731 1.063.46 1.894.734 2.541.94 1.068.339 2.04.29 2.807.176.857-.128 2.637-1.078 3.009-2.12s.37-1.933.26-2.119c-.112-.185-.41-.297-.855-.52v-.002z" style="fill-rule:evenodd;clip-rule:evenodd;fill:#fff"/></svg>